<svg width="17" height="17" viewBox="0 0 17 17" fill="none" xmlns="http://www.w3.org/2000/svg">
<path fill-rule="evenodd" clip-rule="evenodd" d="M4.21741 9.83065L0.300256 8.15147C-0.0975851 7.9802 -0.101038 7.3351 0.295674 7.15937L16.3718 0.0364807C16.7126 -0.114918 17.0643 0.228036 16.99 0.639099L14.1051 16.5778C14.0371 16.9541 13.6529 17.1247 13.3818 16.8984L9.44354 13.6144C9.20434 13.4149 8.87832 13.4256 8.64945 13.6398L6.46597 15.6843C6.2125 15.9223 5.83063 15.7897 5.73361 15.431L4.21741 9.83065ZM13.1448 3.5213L5.48923 8.93678C5.19581 9.14481 5.05765 9.55176 5.15245 9.93281L5.98017 13.2733C6.03894 13.51 6.3381 13.4857 6.36659 13.2411L6.58182 11.4093C6.62239 11.0644 6.76566 10.7466 6.98773 10.5092L13.3058 3.7638C13.4239 3.63792 13.2824 3.42424 13.1448 3.5213Z" fill="white"/>
<path d="M5.48924 8.9371L13.1448 3.52161C13.2824 3.42456 13.424 3.63823 13.3058 3.76412L6.98773 10.5095C6.76567 10.7469 6.6224 11.0647 6.58182 11.4096L6.3666 13.2415C6.33811 13.4861 6.03895 13.5103 5.98018 13.2736L5.15245 9.93312C5.05766 9.55207 5.19582 9.14512 5.48924 8.9371Z" fill="#E6E6E6"/>
</svg>
